<?xml version="1.0" encoding="UTF-8"?><svg id="Ebene_1" xmlns="http://www.w3.org/2000/svg" viewBox="0 0 1080 1016.54"><defs><style>.cls-1,.cls-2{fill:#fff;}.cls-2{stroke:#fff;stroke-miterlimit:10;stroke-width:90px;}</style></defs><path class="cls-1" d="M540,649.25c67.59,0,132.98,5.57,194.33,16.56,56.9,10.19,109.6,25.16,152.42,43.29,48.41,20.5,74.11,40.35,87.14,53.41,11.88,11.89,16.11,20.91,16.11,25.39s-4.23,13.5-16.11,25.39c-13.04,13.05-38.74,32.91-87.14,53.41-42.82,18.13-95.52,33.1-152.42,43.29-61.35,10.99-126.73,16.56-194.33,16.56s-132.98-5.57-194.33-16.56c-56.9-10.19-109.6-25.16-152.42-43.29-48.41-20.5-74.11-40.35-87.14-53.41-11.88-11.89-16.11-20.91-16.11-25.39s4.23-13.5,16.11-25.39c13.04-13.05,38.74-32.91,87.14-53.41,42.81-18.13,95.52-33.1,152.42-43.29,61.35-10.99,126.73-16.56,194.33-16.56m0-90C241.77,559.25,0,661.62,0,787.89s241.77,228.64,540,228.64,540-102.37,540-228.64-241.77-228.64-540-228.64h0Z"/><path class="cls-2" d="M516.63,753.73l-161.2-174.28c-18.85-20.38-4.4-53.45,23.37-53.45h89.2V76.83c0-17.58,14.25-31.83,31.83-31.83h80.33c17.58,0,31.83,14.25,31.83,31.83v449.17s89.2,0,89.2,0c27.77,0,42.22,33.06,23.37,53.45l-161.2,174.28c-12.6,13.62-34.14,13.62-46.74,0Z"/></svg>