<svg xmlns="http://www.w3.org/2000/svg" xmlns:xlink="http://www.w3.org/1999/xlink" viewBox="0 0 36.7 36.7"><defs><linearGradient id="linear-gradient" x1="24.01" y1="0.89" x2="12.69" y2="35.8" gradientTransform="translate(10.82 43.18) rotate(-118.14)" gradientUnits="userSpaceOnUse"><stop offset="0" stop-color="#36356b"/><stop offset="0.12" stop-color="#3c396b"/><stop offset="0.27" stop-color="#4d466b"/><stop offset="0.45" stop-color="#6a5a6b"/><stop offset="0.65" stop-color="#91776b"/><stop offset="0.86" stop-color="#c39b6b"/><stop offset="1" stop-color="#e8b56b"/></linearGradient></defs><g id="Layer_2" data-name="Layer 2"><g id="Layer_1-2" data-name="Layer 1"><circle cx="18.35" cy="18.35" r="18.34" style="fill:url(#linear-gradient)"/><path d="M18.39,29.41a2,2,0,1,0,0-4,1.84,1.84,0,0,0-.66.12A3.21,3.21,0,0,0,12,24.31a2.39,2.39,0,0,0-.66-.09,2.52,2.52,0,0,0-2.5,2.26l-.19,0a1.48,1.48,0,0,0,0,2.95Z" style="fill:#24254f"/><path d="M.29,21.48H11a3.15,3.15,0,0,0,0-6.3,3,3,0,0,0-1.05.18A5.08,5.08,0,0,0,.84,13.42l-.14,0a18.46,18.46,0,0,0-.7,5A18,18,0,0,0,.29,21.48Z" style="fill:#24254f"/><path d="M23,15.2a7.22,7.22,0,0,0,13.65,3.3c0-.05,0-.1,0-.15a18.25,18.25,0,0,0-2.49-9.2A7.22,7.22,0,0,0,23,15.2Z" style="fill:#e98024"/></g></g></svg>