<svg xmlns="http://www.w3.org/2000/svg" xmlns:xlink="http://www.w3.org/1999/xlink" viewBox="0 0 36.7 36.7"><defs><linearGradient id="linear-gradient" x1="25.28" y1="-7.97" x2="13.96" y2="26.94" gradientTransform="translate(-3.14 14.74) rotate(-16.27)" gradientUnits="userSpaceOnUse"><stop offset="0" stop-color="#7c93ac"/><stop offset="0.11" stop-color="#667993"/><stop offset="0.29" stop-color="#48556f"/><stop offset="0.46" stop-color="#303954"/><stop offset="0.64" stop-color="#1f2540"/><stop offset="0.82" stop-color="#141934"/><stop offset="1" stop-color="#111530"/></linearGradient></defs><g id="Layer_2" data-name="Layer 2"><g id="Layer_1-2" data-name="Layer 1"><circle cx="18.35" cy="18.35" r="18.34" style="fill:url(#linear-gradient)"/><path d="M11.66,24.16a2.06,2.06,0,0,1,0-4.12,1.91,1.91,0,0,1,.68.12,3.32,3.32,0,0,1,5.95-1.27,2.48,2.48,0,0,1,.68-.1,2.6,2.6,0,0,1,2.58,2.34l.19,0a1.53,1.53,0,0,1,0,3.05Z" style="fill:#515867"/><path d="M0,18.6h10.5a3.33,3.33,0,1,0-1.1-6.47A5.37,5.37,0,0,0,4.16,7.86,5.4,5.4,0,0,0,3.25,8,18.22,18.22,0,0,0,0,18.35C0,18.43,0,18.51,0,18.6Z" style="fill:#7a8691"/><path d="M15.56,3.54a4.32,4.32,0,1,0,7.5-2.9A18.33,18.33,0,0,0,18.35,0c-.34,0-.67,0-1,.06A4.28,4.28,0,0,0,15.56,3.54Z" style="fill:#fff"/><path d="M27.42,8.3a2.58,2.58,0,0,0-.29,0,2.23,2.23,0,0,0,0,4.46h8.68a18.28,18.28,0,0,0-5-7.82A3.79,3.79,0,0,0,27.42,8.3Z" style="fill:#91a0aa"/></g></g></svg>