<svg xmlns="http://www.w3.org/2000/svg" xmlns:xlink="http://www.w3.org/1999/xlink" viewBox="0 0 36.72 36.7"><defs><linearGradient id="linear-gradient" x1="-41.06" y1="-11.51" x2="-4.37" y2="-11.51" gradientTransform="translate(0.4 36.4) rotate(107.97)" gradientUnits="userSpaceOnUse"><stop offset="0" stop-color="#7891bd"/><stop offset="1" stop-color="#28538f"/></linearGradient></defs><g id="Layer_2" data-name="Layer 2"><g id="Layer_1-2" data-name="Layer 1"><circle cx="18.36" cy="18.35" r="18.34" style="fill:url(#linear-gradient)"/><path d="M0,19.37c0,.67.12,1.32.22,2H15a3.38,3.38,0,0,0,0-6.76,3.22,3.22,0,0,0-1.12.2,5.45,5.45,0,0,0-9.75-2.08A4.14,4.14,0,0,0,3,12.53a4.32,4.32,0,0,0-2.23.63A18.3,18.3,0,0,0,0,19.37Z" style="fill:#eaecf3"/><path d="M16,6.44a6.9,6.9,0,1,0,13.79,0,6.82,6.82,0,0,0-.71-3A18.23,18.23,0,0,0,20.22.07,6.89,6.89,0,0,0,16,6.44Z" style="fill:#fcd930"/><path d="M34.21,16.44a4.15,4.15,0,0,0-1.12-.15,4.25,4.25,0,0,0-4.23,3.83,3.16,3.16,0,0,0-.32,0,2.5,2.5,0,0,0,0,5h6.87a17.77,17.77,0,0,0,.93-10.39A5.34,5.34,0,0,0,34.21,16.44Z" style="fill:#eaecf3"/></g></g></svg>