<svg xmlns="http://www.w3.org/2000/svg" viewBox="0 0 287.5 351.85"><g id="Layer_2" data-name="Layer 2"><g id="Layer_1-2" data-name="Layer 1"><path d="M15.81,202q0,43.43,0,86.84a58.46,58.46,0,0,0,5.7,26.06c11.62,23.68,30.79,36.37,57.07,36.68,42.54.49,85.08.14,127.62.11a94.14,94.14,0,0,0,10.07-.59c30.83-3.39,55.14-29.73,55.27-60.76.26-59.26.12-118.53,0-177.8a19.68,19.68,0,0,0-2.84-9.46c-3.64-6.14-11.14-8.54-18-6.44a15.9,15.9,0,0,0-11.13,15.58q0,87.6,0,175.19c0,19-13.19,32.22-32.22,32.22H80.1c-19,0-32.21-13.19-32.21-32.22q0-86.48,0-172.94c0-1.37.06-2.75,0-4.11-.64-9.13-9.9-16.06-18.84-14.13-8.28,1.78-13.17,8-13.18,17.06Q15.79,157.66,15.81,202ZM207.67,47.93c0-10.52.07-20.48,0-30.44C207.55,6.53,201,0,190.14,0Q143.75,0,97.35,0C86.46,0,79.9,6.52,79.8,17.45c-.09,8.73,0,17.46,0,26.19v4.29h-5c-19.45,0-38.91-.06-58.36,0C6.92,48,0,55,0,64.15S7.05,80,16.68,80q127,0,254,0a18.83,18.83,0,0,0,4.8-.5A15.91,15.91,0,0,0,287.4,62c-.86-7.9-7.77-14-16.36-14-19.46-.09-38.91,0-58.37,0ZM95.83,199.44q0,27.7,0,55.39c0,9.7,6.61,16.78,15.67,16.86,9.35.08,16.36-6.9,16.37-16.67q.09-55.2,0-110.39c0-9.77-7-16.74-16.36-16.67-9.06.07-15.67,7.15-15.68,16.85Q95.82,172.13,95.83,199.44Zm95.8.42q0-27.5,0-55c0-9.72-6.59-16.8-15.64-16.89-9.36-.09-16.38,6.88-16.4,16.62q-.09,55.2,0,110.4c0,9.77,7,16.78,16.32,16.71,9.08-.06,15.71-7.13,15.72-16.81Q191.65,227.37,191.63,199.86Z" style="fill:#fff"/><path d="M15.81,202q0-44.35,0-88.71c0-9,4.9-15.28,13.18-17.06,8.94-1.93,18.2,5,18.84,14.13.1,1.36,0,2.74,0,4.11q0,86.47,0,172.94c0,19,13.18,32.22,32.21,32.22H207.35c19,0,32.22-13.19,32.22-32.22q0-87.6,0-175.19a15.9,15.9,0,0,1,11.13-15.58c6.83-2.1,14.33.3,18,6.44a19.68,19.68,0,0,1,2.84,9.46c.16,59.27.3,118.54,0,177.8-.13,31-24.44,57.37-55.27,60.76a94.14,94.14,0,0,1-10.07.59c-42.54,0-85.08.38-127.62-.11-26.28-.31-45.45-13-57.07-36.68a58.46,58.46,0,0,1-5.7-26.06Q15.77,245.42,15.81,202Z"/><path d="M207.67,47.93h5c19.46,0,38.91-.06,58.37,0,8.59,0,15.5,6.09,16.36,14a15.91,15.91,0,0,1-11.88,17.54,18.83,18.83,0,0,1-4.8.5q-127,0-254,0C7.05,80,0,73.29,0,64.15S6.92,48,16.46,48c19.45-.09,38.91,0,58.36,0h5V43.64c0-8.73-.07-17.46,0-26.19C79.9,6.52,86.46,0,97.35,0q46.4,0,92.79,0C201,0,207.55,6.53,207.65,17.49,207.74,27.45,207.67,37.41,207.67,47.93Z"/><path d="M95.83,199.44q0-27.31,0-54.63c0-9.7,6.62-16.78,15.68-16.85,9.36-.07,16.35,6.9,16.36,16.67q.09,55.19,0,110.39c0,9.77-7,16.75-16.37,16.67-9.06-.08-15.66-7.16-15.67-16.86Q95.82,227.14,95.83,199.44Z"/><path d="M191.63,199.86q0,27.51,0,55c0,9.68-6.64,16.75-15.72,16.81-9.34.07-16.31-6.94-16.32-16.71q-.09-55.2,0-110.4c0-9.74,7-16.71,16.4-16.62,9.05.09,15.63,7.17,15.64,16.89Q191.65,172.36,191.63,199.86Z"/></g></g></svg>