<svg xmlns="http://www.w3.org/2000/svg" viewBox="0 0 63.59 49.01"><g id="Layer_2" data-name="Layer 2"><g id="Layer_1-2" data-name="Layer 1"><path d="M25.36,6.3,14.48,15.42,11.8,14.17l5-4.19,3.43-2.77h0L9,12.85,6.51,11.71,12,3.37l0,0L8.68,6.2l-5,4.19L1,9.13,11.86,0l4.33,2-3.7,5.5L10.83,9.76l0,0,3-1.61,7.38-3.81Z" style="fill:#f0efef"/><path d="M33.34,9.8a5,5,0,0,1,2.38,2,2.87,2.87,0,0,1,.05,2.53,7.78,7.78,0,0,1-2.33,2.85,12.53,12.53,0,0,1-3.71,2.21,10.43,10.43,0,0,1-3.89.7,9.33,9.33,0,0,1-3.71-.86,4.94,4.94,0,0,1-2.39-2,2.83,2.83,0,0,1-.06-2.54A7.84,7.84,0,0,1,22,11.83a12.92,12.92,0,0,1,3.7-2.21,10.71,10.71,0,0,1,3.9-.69A9.22,9.22,0,0,1,33.34,9.8Zm-2.23,1.87a3.72,3.72,0,0,0-1.81-.35,5.47,5.47,0,0,0-2,.53,10.24,10.24,0,0,0-2.17,1.43A7.16,7.16,0,0,0,23.55,15a1.61,1.61,0,0,0-.25,1.36,1.86,1.86,0,0,0,1.05,1,3.71,3.71,0,0,0,1.8.34,5.4,5.4,0,0,0,2-.54,10.19,10.19,0,0,0,2.16-1.43A6.76,6.76,0,0,0,31.9,14a1.63,1.63,0,0,0,.25-1.35A1.77,1.77,0,0,0,31.11,11.67Z" style="fill:#f0efef"/><path d="M43.54,24.91A9.93,9.93,0,0,1,40.59,26a8.78,8.78,0,0,1-2.84.07,9.39,9.39,0,0,1-2.6-.77,4.94,4.94,0,0,1-2.39-2,2.87,2.87,0,0,1-.06-2.53A7.89,7.89,0,0,1,35,17.91a12.53,12.53,0,0,1,3.71-2.21,10.24,10.24,0,0,1,3.9-.69,9,9,0,0,1,3.7.86,6.16,6.16,0,0,1,1.93,1.31A2.53,2.53,0,0,1,49,18.81a3,3,0,0,1-.69,1.9l-3.68-.4c.52-.65.72-1.17.6-1.55a1.75,1.75,0,0,0-1-1,3.93,3.93,0,0,0-1.82-.35,5.51,5.51,0,0,0-2.06.51,9.38,9.38,0,0,0-2.2,1.42,6.89,6.89,0,0,0-1.56,1.7,1.57,1.57,0,0,0-.23,1.38,2.06,2.06,0,0,0,1.13,1,3.69,3.69,0,0,0,1.88.31A5,5,0,0,0,41.51,23Z" style="fill:#f0efef"/><polygon points="63.59 24.12 60.21 22.55 51.21 24.65 56.04 20.6 53 19.18 42.12 28.31 45.16 29.73 48.23 27.16 51.25 26.47 49.48 31.74 52.92 33.35 55.21 25.98 63.59 24.12" style="fill:#f0efef"/><path d="M11.82,31.08,8.7,29.62,7.88,26l-4-1.86L3.06,27,0,25.56,4.1,13.27,7.74,15ZM4.45,21.92l2.87,1.33L5.89,16.84Z" style="fill:#f0efef"/><path d="M18.54,20A8.29,8.29,0,0,1,21,21.7a7.16,7.16,0,0,1,2.07,5.14,4.2,4.2,0,0,1-.53,2.31,2,2,0,0,1-1.54.9,4.88,4.88,0,0,1-2.44-.58l-2.32-1.08v4.74l-3-1.42V17.51Zm-.48,6.47a1.67,1.67,0,0,0,1.44.18c.33-.17.49-.58.49-1.24a2.89,2.89,0,0,0-.49-1.7,3.4,3.4,0,0,0-1.44-1.16l-1.84-.86v3.92Z" style="fill:#f0efef"/><path d="M30.35,25.51a8.27,8.27,0,0,1,2.43,1.7,7,7,0,0,1,1.54,2.33,7.25,7.25,0,0,1,.53,2.81,4.16,4.16,0,0,1-.53,2.31,1.93,1.93,0,0,1-1.54.9A5,5,0,0,1,30.35,35L28,33.9v4.73l-3-1.41V23ZM29.87,32a1.68,1.68,0,0,0,1.44.19c.32-.17.48-.59.48-1.25a3,3,0,0,0-.48-1.7,3.61,3.61,0,0,0-1.44-1.16L28,27.21v3.91Z" style="fill:#f0efef"/><polygon points="50.2 49.01 38.54 43.57 38.54 29.37 50.2 34.81 50.2 49.01" style="fill:#e691bd"/></g></g></svg>